<svg width="18" height="15" viewBox="0 0 18 15" fill="none" xmlns="http://www.w3.org/2000/svg">
<path fill-rule="evenodd" clip-rule="evenodd" d="M7.7075 13.7125C7.8975 13.5125 7.9975 13.2625 7.9975 13.0025C7.9975 12.7425 7.8975 12.4925 7.7075 12.2925L3.4075 8.0025L16.9975 8.0025C17.5475 8.0025 17.9975 7.5525 17.9975 7.0025C17.9975 6.4525 17.5475 6.0025 16.9975 6.0025L3.4075 6.0025L7.7075 1.7125C8.0975 1.3225 8.0975 0.6825 7.7075 0.2925C7.3175 -0.0975003 6.6775 -0.0975003 6.2875 0.2925L0.2875 6.2925C0.1975 6.3825 0.1275 6.4925 0.0775003 6.6125C0.0575003 6.6625 0.0375003 6.7025 0.0375003 6.7525C-0.0124997 6.9125 -0.0124997 7.0925 0.0375003 7.2525C0.0375003 7.3025 0.0575003 7.3425 0.0775003 7.3925C0.1275 7.5125 0.1975 7.6225 0.2875 7.7125L6.2875 13.7125C6.6775 14.1025 7.3175 14.1025 7.7075 13.7125Z" fill="#313037"/>
</svg>
